<svg width="20" height="20" viewBox="0 0 20 20" fill="none" xmlns="http://www.w3.org/2000/svg">
<g clip-path="url(#clip0_20_373)">
<path d="M14.167 1.6665H5.83366C3.53247 1.6665 1.66699 3.53198 1.66699 5.83317V14.1665C1.66699 16.4677 3.53247 18.3332 5.83366 18.3332H14.167C16.4682 18.3332 18.3337 16.4677 18.3337 14.1665V5.83317C18.3337 3.53198 16.4682 1.6665 14.167 1.6665Z" stroke="white" stroke-width="2" stroke-linecap="round" stroke-linejoin="round"/>
<path d="M13.3337 9.47525C13.4366 10.1688 13.3181 10.8771 12.9952 11.4994C12.6723 12.1218 12.1614 12.6264 11.5351 12.9416C10.9088 13.2569 10.1991 13.3666 9.5069 13.2552C8.81468 13.1438 8.17521 12.817 7.67944 12.3212C7.18367 11.8254 6.85685 11.186 6.74546 10.4938C6.63408 9.80154 6.74379 9.09183 7.05901 8.46556C7.37423 7.8393 7.8789 7.32837 8.50123 7.00545C9.12356 6.68254 9.83187 6.56407 10.5254 6.66692C11.2328 6.77182 11.8878 7.10147 12.3935 7.60717C12.8992 8.11288 13.2288 8.76782 13.3337 9.47525Z" stroke="white" stroke-width="2" stroke-linecap="round" stroke-linejoin="round"/>
<path d="M14.583 5.4165H14.5913" stroke="white" stroke-width="2" stroke-linecap="round" stroke-linejoin="round"/>
</g>
<defs>
<clipPath id="clip0_20_373">
<rect width="20" height="20" fill="white"/>
</clipPath>
</defs>
</svg>
