<svg width="20" height="16" viewBox="0 0 20 16" fill="none" xmlns="http://www.w3.org/2000/svg">
<path d="M19.1663 0.500079C18.3683 1.06298 17.4848 1.4935 16.5497 1.77508C16.0478 1.198 15.3808 0.788989 14.6389 0.603351C13.897 0.417713 13.1159 0.464409 12.4014 0.737123C11.6869 1.00984 11.0734 1.49541 10.6438 2.12818C10.2143 2.76094 9.98942 3.51036 9.99967 4.27508V5.10841C8.5352 5.14639 7.08407 4.82159 5.77551 4.16295C4.46696 3.50431 3.34161 2.53228 2.49967 1.33341C2.49967 1.33341 -0.833659 8.83341 6.66634 12.1667C4.95011 13.3317 2.90564 13.9159 0.833008 13.8334C8.33301 18.0001 17.4997 13.8334 17.4997 4.25008C17.4989 4.01796 17.4766 3.78641 17.433 3.55841C18.2835 2.71966 18.8837 1.66067 19.1663 0.500079Z" fill="white"/>
</svg>
